<?xml version="1.0" encoding="UTF-8"?>
<svg fill="none" viewBox="0 0 30 31" xmlns="http://www.w3.org/2000/svg">
<path d="m23.75 14.003h-14.825l4.5375-5.45c0.2122-0.25527 0.3143-0.58437 0.2838-0.91491-0.0305-0.33053-0.191-0.63542-0.4463-0.84759-0.2553-0.21218-0.5844-0.31425-0.9149-0.28378-0.3305 0.03048-0.6354 0.19101-0.8476 0.44628l-6.25 7.5c-0.04205 0.0597-0.07965 0.1223-0.1125 0.1875 0 0.0625 0 0.1-0.0875 0.1625-0.05666 0.1433-0.08632 0.2959-0.0875 0.45 0.00118 0.1541 0.03084 0.3067 0.0875 0.45 0 0.0625 0 0.1 0.0875 0.1625 0.03285 0.0652 0.07045 0.1279 0.1125 0.1875l6.25 7.5c0.1175 0.1411 0.2647 0.2546 0.4311 0.3324 0.1663 0.0777 0.3478 0.1179 0.5314 0.1176 0.2921 6e-4 0.5751-0.1011 0.8-0.2875 0.1266-0.1049 0.2312-0.2338 0.3079-0.3792 0.0767-0.1455 0.1239-0.3046 0.139-0.4683s-0.0022-0.3288-0.051-0.4858-0.1281-0.3029-0.2334-0.4292l-4.5375-5.45h14.825c0.3315 0 0.6495-0.1317 0.8839-0.3661s0.3661-0.5524 0.3661-0.8839-0.1317-0.6495-0.3661-0.8839-0.5524-0.3661-0.8839-0.3661z" fill="#F53838"/>
</svg>
