<?xml version="1.0" encoding="UTF-8"?>
<svg fill="none" viewBox="0 0 25 25" xmlns="http://www.w3.org/2000/svg">
<path d="m11.449 17.28c-0.1313 2e-4 -0.2613-0.0254-0.3826-0.0755s-0.2316-0.1237-0.3244-0.2165l-4.242-4.243c-0.09558-0.0922-0.17184-0.2025-0.22433-0.3245-0.05249-0.1219-0.08017-0.2531-0.08142-0.3859-0.00124-0.1328 0.02397-0.2645 0.07416-0.3874 0.05019-0.123 0.12437-0.2347 0.21819-0.3286 0.09383-0.094 0.20543-0.1683 0.32828-0.2187 0.12286-0.0503 0.25452-0.0757 0.3873-0.0747 0.13278 0.0011 0.26402 0.0286 0.38606 0.0809s0.23244 0.1284 0.32476 0.2239l3.535 3.535 6.365-6.363c0.1875-0.18764 0.4419-0.29311 0.7071-0.2932 0.2653-9e-5 0.5198 0.10519 0.7074 0.2927s0.2931 0.44188 0.2932 0.70715-0.1052 0.51971-0.2927 0.70735l-7.072 7.072c-0.0928 0.0928-0.2031 0.1664-0.3244 0.2165s-0.2513 0.0757-0.3826 0.0755z" fill="#2FAB73"/>
</svg>
