<?xml version="1.0" encoding="UTF-8"?>
<svg fill="none" viewBox="0 0 146 167" xmlns="http://www.w3.org/2000/svg">
<path d="m52.025 40.687c0.6568-1.4257 1.4261-2.5333 1.9344-3.1172 0.01 1.3773-0.2023 2.6128-0.531 3.6866 1.0114 0.4879 2.0625 1.1711 3.0667 2.1137-0.7739-0.0234-2.1092-0.2108-3.6018-0.6969-0.688 1.5172-1.5577 2.5648-2.1279 3.0525 0.0386-1.2769 0.3073-2.5006 0.6847-3.6044-1.0666-0.4726-2.1474-1.1064-3.1109-1.9452 0.7452-0.0874 2.1049-0.0144 3.6858 0.5109z" clip-rule="evenodd" fill="url(#p)" fill-rule="evenodd"/>
<path d="m46.833 26.405c0.4371-0.949 0.9491-1.6862 1.2875-2.0749 0.0067 0.9168-0.1346 1.7392-0.3534 2.4539 0.6732 0.3248 1.3728 0.7795 2.0412 1.407-0.5151-0.0156-1.4039-0.1404-2.3974-0.4639-0.458 1.0099-1.0369 1.7072-1.4164 2.0318 0.0257-0.8499 0.2045-1.6644 0.4557-2.3992-0.7099-0.3146-1.4293-0.7365-2.0707-1.2948 0.4961-0.0581 1.4011-0.0096 2.4535 0.3401z" clip-rule="evenodd" fill="url(#i)" fill-rule="evenodd"/>
<path d="m32.783 12.207c0.6567-1.4257 1.426-2.5332 1.9344-3.1172 0.0099 1.3774-0.2024 2.6128-0.5311 3.6866 1.0114 0.4879 2.0625 1.1711 3.0668 2.1137-0.7739-0.0234-2.1093-0.2108-3.6018-0.6969-0.6881 1.5172-1.5578 2.5648-2.128 3.0525 0.0386-1.2768 0.3073-2.5006 0.6847-3.6044-1.0666-0.4726-2.1473-1.1065-3.1108-1.9452 0.7452-0.0874 2.1048-0.0144 3.6858 0.5109z" clip-rule="evenodd" fill="url(#h)" fill-rule="evenodd"/>
<path d="m30.556 44.172c0.9663-2.0976 2.098-3.727 2.8459-4.5862 0.0147 2.0264-0.2976 3.8441-0.7812 5.4239 1.488 0.7178 3.0343 1.7229 4.5118 3.1098-1.1385-0.0344-3.1031-0.3102-5.299-1.0254-1.0123 2.2322-2.2918 3.7734-3.1308 4.491 0.0569-1.8786 0.4521-3.6789 1.0074-5.303-1.5692-0.6953-3.1593-1.6278-4.5768-2.8618 1.0964-0.1285 3.0967-0.0211 5.4227 0.7517z" clip-rule="evenodd" fill="url(#g)" fill-rule="evenodd"/>
<circle transform="rotate(21.386 36.369 29.816)" cx="36.369" cy="29.816" r=".84653" fill="#2F235A"/>
<circle transform="rotate(21.386 57.33 19.172)" cx="57.33" cy="19.172" r=".84653" fill="#FE9076"/>
<circle transform="rotate(21.386 17.094 23.796)" cx="17.094" cy="23.796" r=".84653" fill="#FFA400"/>
<circle transform="rotate(21.386 35.272 57.882)" cx="35.272" cy="57.882" r=".84653" fill="#23BB86"/>
<path d="m56.686 15.126c-0.8235-3.1454-3.7962-10.339-9.0981-13.951" stroke="#FE9076" stroke-linecap="round" stroke-width=".73682"/>
<path d="m14.596 20.381c-2.0493-2.5245-7.728-7.8481-14.048-8.9471" stroke="#FFA400" stroke-linecap="round" stroke-width=".73682"/>
<path d="m31.67 59.112c-1.8161 0.6623-6.3879 2.7728-10.146 5.9161" stroke="#23BB86" stroke-linecap="round" stroke-width=".73682"/>
<path d="m93.975 40.687c-0.6568-1.4257-1.426-2.5333-1.9344-3.1172-0.01 1.3773 0.2023 2.6128 0.531 3.6866-1.0114 0.4879-2.0624 1.1711-3.0667 2.1137 0.7739-0.0234 2.1093-0.2108 3.6018-0.6969 0.688 1.5172 1.5577 2.5648 2.128 3.0525-0.0387-1.2769-0.3073-2.5006-0.6847-3.6044 1.0666-0.4726 2.1473-1.1064 3.1108-1.9452-0.7452-0.0874-2.1048-0.0144-3.6858 0.5109z" clip-rule="evenodd" fill="url(#f)" fill-rule="evenodd"/>
<path d="m99.167 26.405c-0.4372-0.949-0.9492-1.6862-1.2876-2.0749-0.0066 0.9168 0.1347 1.7392 0.3535 2.4539-0.6732 0.3248-1.3729 0.7795-2.0413 1.407 0.5151-0.0156 1.4039-0.1404 2.3974-0.4639 0.458 1.0099 1.0369 1.7072 1.4163 2.0318-0.0255-0.8499-0.2044-1.6644-0.4556-2.3992 0.7096-0.3146 1.4296-0.7365 2.0706-1.2948-0.496-0.0581-1.401-0.0096-2.4533 0.3401z" clip-rule="evenodd" fill="url(#e)" fill-rule="evenodd"/>
<path d="m113.22 12.207c-0.656-1.4257-1.426-2.5332-1.934-3.1172-0.01 1.3774 0.202 2.6128 0.531 3.6866-1.011 0.4879-2.062 1.1711-3.067 2.1137 0.774-0.0234 2.11-0.2108 3.602-0.6969 0.688 1.5172 1.558 2.5648 2.128 3.0525-0.039-1.2768-0.307-2.5006-0.685-3.6044 1.067-0.4726 2.148-1.1065 3.111-1.9452-0.745-0.0874-2.105-0.0144-3.686 0.5109z" clip-rule="evenodd" fill="url(#d)" fill-rule="evenodd"/>
<path d="m115.44 44.172c-0.967-2.0976-2.098-3.727-2.846-4.5862-0.015 2.0264 0.297 3.8441 0.781 5.4239-1.488 0.7178-3.034 1.7229-4.512 3.1098 1.139-0.0344 3.103-0.3102 5.299-1.0254 1.013 2.2322 2.292 3.7734 3.131 4.491-0.057-1.8786-0.452-3.6789-1.007-5.303 1.569-0.6953 3.159-1.6278 4.576-2.8618-1.096-0.1285-3.096-0.0211-5.422 0.7517z" clip-rule="evenodd" fill="url(#c)" fill-rule="evenodd"/>
<circle transform="matrix(-.93114 .36466 .36466 .93114 109.63 29.816)" r=".84653" fill="#2F235A"/>
<circle transform="matrix(-.93114 .36466 .36466 .93114 88.67 19.172)" r=".84653" fill="#FE9076"/>
<circle transform="matrix(-.93114 .36466 .36466 .93114 128.91 23.796)" r=".84653" fill="#FFA400"/>
<circle transform="matrix(-.93114 .36466 .36466 .93114 110.73 57.882)" r=".84653" fill="#23BB86"/>
<path d="m89.314 15.126c0.8236-3.1454 3.7962-10.339 9.0982-13.951" stroke="#FE9076" stroke-linecap="round" stroke-width=".73682"/>
<path d="m131.4 20.381c2.049-2.5245 7.728-7.8481 14.048-8.9471" stroke="#FFA400" stroke-linecap="round" stroke-width=".73682"/>
<path d="m114.33 59.112c1.816 0.6623 6.388 2.7728 10.146 5.9161" stroke="#23BB86" stroke-linecap="round" stroke-width=".73682"/>
<rect x="27.535" y="104.44" width="89.85" height="62.11" fill="url(#b)"/>
<mask id="r" x="27" y="104" width="91" height="63" mask-type="alpha" maskUnits="userSpaceOnUse">
<rect x="27.535" y="104.44" width="89.85" height="62.11" fill="#C4C4C4"/>
</mask>
<g mask="url(#r)">
<path d="m31.786 102.86h61.182l-13.829 24.011h-61.182l13.829-24.011z" fill="#000" fill-opacity=".07"/>
<rect x="88.637" y="104.44" width="89.85" height="62.11" fill="url(#a)"/>
</g>
<path d="m27.456 104.44h61.182l-11.818 19.723h-61.182l11.818-19.723z" fill="url(#o)"/>
<mask id="q" x="88" y="104" width="30" height="63" mask-type="alpha" maskUnits="userSpaceOnUse">
<rect x="88.638" y="104.44" width="28.748" height="62.11" fill="#C4C4C4"/>
</mask>
<g mask="url(#q)">
<path d="m113.89 104.34h-28.793l13.529 22.707h28.793l-13.529-22.707z" fill="#000" fill-opacity=".07"/>
</g>
<path d="m117.43 104.44h-28.793l11.818 19.723h28.793l-11.818-19.723z" fill="url(#n)"/>
<circle cx="59.386" cy="87.241" r="8.4908" fill="url(#m)"/>
<circle cx="85.786" cy="75.891" r="8.2047" fill="url(#l)"/>
<circle cx="67.877" cy="54.985" r="6.6163" fill="url(#k)"/>
<circle cx="90.288" cy="53.987" r="1.65" fill="#FFA800" fill-opacity=".23"/>
<circle cx="79.232" cy="91.49" r="1.65" fill="#FFA800" fill-opacity=".23"/>
<circle cx="52.138" cy="66.036" r="1.65" fill="#FFA800" fill-opacity=".23"/>
<path d="m117.6 104.73h-90.134l-13.842-85.348h120.6l-16.622 85.348z" fill="url(#j)"/>
<defs>
<linearGradient id="p" x1="53.709" x2="50.71" y1="38.474" y2="46.131" gradientUnits="userSpaceOnUse">
<stop stop-color="#FFE89E" offset="0"/>
<stop stop-color="#FFBF1A" offset="1"/>
</linearGradient>
<linearGradient id="i" x1="47.955" x2="45.958" y1="24.931" y2="30.028" gradientUnits="userSpaceOnUse">
<stop stop-color="#FFE89E" offset="0"/>
<stop stop-color="#FFBF1A" offset="1"/>
</linearGradient>
<linearGradient id="h" x1="34.467" x2="31.468" y1="9.9933" y2="17.651" gradientUnits="userSpaceOnUse">
<stop stop-color="#FFE89E" offset="0"/>
<stop stop-color="#FFBF1A" offset="1"/>
</linearGradient>
<linearGradient id="g" x1="33.035" x2="28.622" y1="40.915" y2="52.182" gradientUnits="userSpaceOnUse">
<stop stop-color="#FFE89E" offset="0"/>
<stop stop-color="#FFBF1A" offset="1"/>
</linearGradient>
<linearGradient id="f" x1="92.291" x2="95.29" y1="38.474" y2="46.131" gradientUnits="userSpaceOnUse">
<stop stop-color="#FFE89E" offset="0"/>
<stop stop-color="#FFBF1A" offset="1"/>
</linearGradient>
<linearGradient id="e" x1="98.046" x2="100.04" y1="24.931" y2="30.028" gradientUnits="userSpaceOnUse">
<stop stop-color="#FFE89E" offset="0"/>
<stop stop-color="#FFBF1A" offset="1"/>
</linearGradient>
<linearGradient id="d" x1="111.53" x2="114.53" y1="9.9933" y2="17.651" gradientUnits="userSpaceOnUse">
<stop stop-color="#FFE89E" offset="0"/>
<stop stop-color="#FFBF1A" offset="1"/>
</linearGradient>
<linearGradient id="c" x1="112.96" x2="117.38" y1="40.915" y2="52.182" gradientUnits="userSpaceOnUse">
<stop stop-color="#FFE89E" offset="0"/>
<stop stop-color="#FFBF1A" offset="1"/>
</linearGradient>
<linearGradient id="b" x1="57.549" x2="21.739" y1="92.94" y2="191.57" gradientUnits="userSpaceOnUse">
<stop stop-color="#FFD481" offset="0"/>
<stop stop-color="#FA620C" offset="1"/>
</linearGradient>
<linearGradient id="a" x1="42.865" x2="151.54" y1="100.5" y2="216.64" gradientUnits="userSpaceOnUse">
<stop stop-color="#FFD481" offset="0"/>
<stop stop-color="#FA620C" offset=".83311"/>
</linearGradient>
<linearGradient id="o" x1="28.715" x2="25.807" y1="97.39" y2="139.41" gradientUnits="userSpaceOnUse">
<stop stop-color="#FFD481" offset="0"/>
<stop stop-color="#FA620C" offset="1"/>
</linearGradient>
<linearGradient id="n" x1="121.97" x2="127.14" y1="97.39" y2="138.97" gradientUnits="userSpaceOnUse">
<stop stop-color="#FFD481" offset="0"/>
<stop stop-color="#FA620C" offset="1"/>
</linearGradient>
<linearGradient id="m" x1="60.029" x2="58.414" y1="75.948" y2="98.867" gradientUnits="userSpaceOnUse">
<stop stop-color="#FF9F81" offset="0"/>
<stop stop-color="#F53838" offset="1"/>
</linearGradient>
<linearGradient id="l" x1="86.408" x2="84.847" y1="64.979" y2="87.125" gradientUnits="userSpaceOnUse">
<stop stop-color="#FF9F81" offset="0"/>
<stop stop-color="#F53838" offset="1"/>
</linearGradient>
<linearGradient id="k" x1="68.378" x2="67.119" y1="46.185" y2="64.044" gradientUnits="userSpaceOnUse">
<stop stop-color="#FF9F81" offset="0"/>
<stop stop-color="#F53838" offset="1"/>
</linearGradient>
<linearGradient id="j" x1="72.93" x2="72.93" y1="19.385" y2="200.71" gradientUnits="userSpaceOnUse">
<stop stop-color="#fff" stop-opacity="0" offset="0"/>
<stop stop-color="#FE9277" offset="1"/>
</linearGradient>
</defs>
</svg>
