<?xml version="1.0" encoding="UTF-8"?>
<svg fill="none" viewBox="0 0 510 416" xmlns="http://www.w3.org/2000/svg">
<path d="m381.17 294.04-39.722-23.318-31.201 46.432c18.228 15.212 48.851 26.275 64.675 22.897 32.474-6.933 98.097-99.136 107.2-106.16 30.998-23.897 41.074-32.966 2.286-14.397-36.981 17.704-17.394 0-26.454 0-10.885 0.76-7.278 10.421-3.238 17.343l-73.549 57.199z" fill="url(#o)"/>
<path d="m155.79 258.71c11.207-7.782 55.489-21.8 74.937-27.837l20.575 2.245c12.964 3.214 40.771 8.693 53.561 13.879 12.791 5.185 36.003 21.722 57.658 35.512l-5.113 17.708c-4.592 15.903-16.735 28.515-32.453 33.706-4.045 25.722-7.533 67.539-6.957 80.503l-150.49-0.117-6.889-63.648-30.989 3.32-26.177-20.058c32.777-56.694 38.325-65.485 52.333-75.213z" fill="url(#i)"/>
<path d="m112.74 404.96c-47.681-6.045-16.67-54.37-8.216-70.329 10.225 8.607 22.851 13.858 36.164 15.041l16.431 1.459-6.728 15.522 72.639 17.006 10.191 28.271c-7.259-1.236-61.188 0.549-120.48-6.97z" fill="url(#h)"/>
<path d="m235.8 104c2.347-4.2434 9.077-10.185 17.224 0h-17.224z" fill="#30235B"/>
<ellipse cx="239.71" cy="249.38" rx="25.972" ry="18.508" fill="#CF0606"/>
<path d="m218.43 248.39 3.63-36.149h35.345l4.06 36.149c-1.419 4.257-8.119 12.893-20.525 12.893-15.813 0-21.497-8.636-22.51-12.893z" fill="url(#g)"/>
<mask id="r" x="218" y="212" width="44" height="50" mask-type="alpha" maskUnits="userSpaceOnUse">
<path d="m218.43 248.39 3.63-36.149h35.345l4.068 36.222c-1.419 4.257-8.142 12.821-20.549 12.821-15.812 0-21.481-8.637-22.494-12.894z" fill="url(#f)"/>
</mask>
<g mask="url(#r)">
<path d="m270.14 213.62c-31.959 39.542-49.818 7.748-59.043 2.979l6.339-26.732 37.842-4.519 14.862 28.272z" fill="#000" opacity=".1"/>
</g>
<path d="m239.1 226.75c-38.117 0-44.672-54.715-32.895-79.741 26.498-32.387 59.622-13.495 72.871 0 3.19 20.855 6.707 79.741-39.976 79.741z" fill="url(#e)"/>
<path d="m279.72 184.89-7.468-5.501 1.155-4.096 8.53 5.625-2.217 3.972z" fill="#111"/>
<path d="m201.92 183.3 7.468-5.502-1.155-4.095-8.53 5.624 2.217 3.973z" fill="#111"/>
<path d="m208.75 150.3c27.024 17.607 56.982 7.336 68.583 0-2.443 7.704 1.018 22.513 3.053 28.954 17.584-22.898 11.835-35.263 6.763-38.584-0.845-11.412-11.22-39.946-46.049-38.594-34.829 1.353-41.588 26.055-40.601 35.213-13.188 17.922-5.342 35.444 1.019 41.965 7.232-14.04 7.067-23.889 7.232-28.954z" fill="#30235B"/>
<g filter="url(#w)">
<path d="m243.87 119.7c-40.343-1.351-49.329 25.181-50.535 40.587-0.097 1.234-1.106 2.205-2.343 2.205-1.321 0-2.373-1.101-2.255-2.416 1.76-19.754 12.292-54.272 55.133-51.892 43.256 2.403 51.718 36.838 50.391 56.034-0.071 1.027-0.939 1.803-1.969 1.803-1.123 0-2.024-0.911-2.069-2.033-0.636-15.927-11.224-43.27-46.353-44.288z" fill="#fff"/>
</g>
<g filter="url(#v)">
<rect transform="rotate(10.054 295.07 172.32)" x="295.07" y="172.32" width="5.4757" height="21.013" rx="2.7378" fill="#24C28A"/>
</g>
<g filter="url(#u)">
<rect transform="rotate(10.054 283.3 158.69)" x="283.3" y="158.69" width="16.867" height="43.773" rx="8.4334" fill="#fff"/>
</g>
<g filter="url(#t)">
<rect transform="matrix(-.98464 .17458 .17458 .98464 186.16 172.32)" width="5.4757" height="21.013" rx="2.7378" fill="#24C28A"/>
</g>
<g filter="url(#s)">
<rect transform="matrix(-.98464 .17458 .17458 .98464 197.77 158.69)" width="16.867" height="43.773" rx="8.4334" fill="#fff"/>
</g>
<mask id="q" x="181" y="158" width="25" height="47" mask-type="alpha" maskUnits="userSpaceOnUse">
<rect transform="matrix(-.98464 .17458 .17458 .98464 197.77 158.69)" width="16.867" height="43.773" rx="8.4334" fill="#fff"/>
</mask>
<g mask="url(#q)">
<rect transform="rotate(-10.098 189.83 158.69)" x="189.83" y="158.69" width="21.94" height="47.517" fill="#E8E8E8"/>
</g>
<mask id="p" x="275" y="158" width="25" height="47" mask-type="alpha" maskUnits="userSpaceOnUse">
<rect transform="rotate(10.054 283.3 158.69)" x="283.3" y="158.69" width="16.867" height="43.773" rx="8.4334" fill="#fff"/>
</mask>
<g mask="url(#p)">
<rect transform="matrix(-.98451 -.17533 -.17533 .98451 292.27 158.69)" width="21.94" height="47.517" fill="#E8E8E8"/>
</g>
<path d="m222.67 191.28c-5.392 0-8.108-4.25-8.798-6.147-0.794-1.587-1.42-5.722 0.459-9.007 2.389-4.176 13.618-5.341 17.552 0.559 3.933 5.9 0 14.595-9.213 14.595z" fill="#E6FCFF" opacity=".5"/>
<path d="m258.4 191.28c5.393 0 8.108-4.25 8.798-6.147 0.794-1.587 1.421-5.722-0.458-9.007-2.389-4.176-13.619-5.341-17.552 0.559-3.934 5.9 0 14.595 9.212 14.595z" fill="#E6FCFF" opacity=".5"/>
<path d="m234.67 175.39c-8.794-7.723-16.738-4.455-21.445-2.519-0.523 0.215-1.007 0.414-1.447 0.58l-2.947 5e-3c-0.555 1e-3 -1.003 0.454-0.998 1.009l0.022 2.478c5e-3 0.549 0.451 0.991 1 0.991h2.131c-1.544 13.251 8.228 16.797 16.043 14.408 6.968-2.129 8.833-8.154 9.206-11.934 1.49-3.303 8.025-1.777 8.283-0.074 6e-3 0.04 0.013 0.085 0.02 0.134 0.307 2.074 1.852 12.522 13.615 12.537 9.635 0.012 12.248-8.595 12.351-12.901l2.494-0.022c0.552-5e-3 0.996-0.457 0.991-1.009l-0.027-3.031c-5e-3 -0.552-0.457-0.996-1.009-0.991l-2.494 0.022c-6.276-6.358-19.758-5.763-24.507 0.217-5.239-1.208-9.704-0.436-11.282 0.1zm-11.998 15.897c-5.392 0-8.108-4.25-8.798-6.147-0.793-1.587-1.42-5.722 0.459-9.007 2.389-4.176 13.618-5.341 17.552 0.559 3.933 5.9 0 14.595-9.213 14.595zm44.53-6.147c-0.69 1.897-3.405 6.147-8.798 6.147-9.212 0-13.145-8.695-9.212-14.595s15.163-4.735 17.552-0.559c1.879 3.285 1.252 7.42 0.458 9.007z" clip-rule="evenodd" fill="#111" fill-rule="evenodd"/>
<path d="m164.32 409.06c0-0.555 0.45-1.004 1.005-1.004h154.39c0.971 0 1.758 0.787 1.758 1.758 0 2.912-2.361 5.274-5.274 5.274h-145.85c-3.329 0-6.028-2.699-6.028-6.028z" fill="#B4B4B4"/>
<rect x="164.32" y="305.52" width="157.16" height="105.15" rx="2.9467" fill="url(#d)"/>
<circle cx="242.9" cy="358.1" r="11.176" fill="#fff"/>
<path d="m131.24 170.25c0.2-3.408 0.879-6.262 1.446-7.848 1.112 2.782 1.662 5.453 1.848 7.888 2.436 0.186 5.107 0.736 7.888 1.849-1.586 0.567-4.439 1.246-7.848 1.445-0.19 3.619-1.12 6.431-1.888 7.871-0.935-2.617-1.362-5.308-1.473-7.844-2.535-0.111-5.227-0.537-7.844-1.472 1.441-0.768 4.252-1.699 7.871-1.889z" clip-rule="evenodd" fill="url(#c)" fill-rule="evenodd"/>
<path d="m104.35 147.83c0.132-2.269 0.585-4.169 0.962-5.224 0.74 1.851 1.106 3.629 1.23 5.25 1.621 0.124 3.399 0.49 5.251 1.231-1.056 0.377-2.955 0.829-5.224 0.962-0.127 2.409-0.746 4.28-1.257 5.239-0.622-1.742-0.906-3.534-0.98-5.221-1.688-0.074-3.48-0.358-5.2215-0.98 0.9585-0.511 2.8305-1.131 5.2395-1.257z" clip-rule="evenodd" fill="url(#b)" fill-rule="evenodd"/>
<path d="m61.027 131.85c0.1993-3.409 0.8789-6.262 1.4453-7.848 1.1128 2.782 1.6628 5.452 1.8488 7.888 2.4356 0.186 5.1063 0.736 7.8882 1.849-1.586 0.566-4.4395 1.246-7.8481 1.445-0.1901 3.619-1.1208 6.431-1.8889 7.871-0.9345-2.617-1.361-5.309-1.4723-7.844-2.5352-0.111-5.2269-0.538-7.8438-1.472 1.4402-0.768 4.2519-1.699 7.8708-1.889z" clip-rule="evenodd" fill="url(#a)" fill-rule="evenodd"/>
<path d="m64.736 210.19c0.2932-5.015 1.2931-9.213 2.1264-11.547 1.6372 4.093 2.4464 8.022 2.72 11.606 3.5833 0.273 7.5126 1.083 11.605 2.72-2.3334 0.833-6.5314 1.833-11.546 2.126-0.2797 5.324-1.6489 9.461-2.7789 11.58-1.375-3.85-2.0024-7.81-2.1661-11.54-3.7299-0.164-7.6901-0.791-11.54-2.166 2.1188-1.13 6.2556-2.5 11.58-2.779z" clip-rule="evenodd" fill="url(#n)" fill-rule="evenodd"/>
<circle cx="95.205" cy="180.53" r="1.8414" fill="#2F235A"/>
<circle cx="137.46" cy="127.74" r="1.8414" fill="#FE9076"/>
<circle cx="44.844" cy="173.22" r="1.8414" fill="#FFA400"/>
<circle cx="127.37" cy="208.93" r="1.8414" fill="#23BB86"/>
<path d="m132.95 120.05c-4.163-5.718-15.89-17.931-29.494-21.04" stroke="#FE9076" stroke-linecap="round" stroke-width="1.6028"/>
<path d="m37.074 168.29c-6.1531-3.487-21.878-9.766-35.551-6.979" stroke="#FFA400" stroke-linecap="round" stroke-width="1.6028"/>
<path d="m121.05 214.28c-3.153 2.782-10.739 10.684-15.858 20.031" stroke="#23BB86" stroke-linecap="round" stroke-width="1.6028"/>
<path d="m348.59 170.25c-0.199-3.408-0.879-6.262-1.445-7.848-1.113 2.782-1.663 5.453-1.849 7.888-2.436 0.186-5.107 0.736-7.888 1.849 1.586 0.567 4.439 1.246 7.848 1.445 0.19 3.619 1.12 6.431 1.889 7.871 0.934-2.617 1.361-5.308 1.472-7.844 2.535-0.111 5.227-0.537 7.844-1.472-1.44-0.768-4.252-1.699-7.871-1.889z" clip-rule="evenodd" fill="url(#m)" fill-rule="evenodd"/>
<path d="m375.48 147.83c-0.133-2.269-0.585-4.169-0.962-5.224-0.741 1.851-1.107 3.629-1.231 5.25-1.621 0.124-3.399 0.49-5.251 1.231 1.056 0.377 2.955 0.829 5.224 0.962 0.127 2.409 0.746 4.28 1.258 5.239 0.622-1.742 0.905-3.534 0.98-5.221 1.687-0.074 3.479-0.358 5.221-0.98-0.959-0.511-2.831-1.131-5.239-1.257z" clip-rule="evenodd" fill="url(#l)" fill-rule="evenodd"/>
<path d="m418.8 131.85c-0.2-3.409-0.879-6.262-1.446-7.848-1.112 2.782-1.662 5.452-1.848 7.888-2.436 0.186-5.107 0.736-7.889 1.849 1.586 0.566 4.44 1.246 7.849 1.445 0.19 3.619 1.12 6.431 1.888 7.871 0.935-2.617 1.361-5.309 1.473-7.844 2.535-0.111 5.227-0.538 7.843-1.472-1.44-0.768-4.251-1.699-7.87-1.889z" clip-rule="evenodd" fill="url(#k)" fill-rule="evenodd"/>
<path d="m415.09 210.19c-0.294-5.015-1.293-9.213-2.127-11.547-1.637 4.093-2.446 8.022-2.72 11.606-3.583 0.273-7.512 1.083-11.605 2.72 2.333 0.833 6.531 1.833 11.546 2.126 0.28 5.324 1.649 9.461 2.779 11.58 1.375-3.85 2.003-7.81 2.166-11.54 3.73-0.164 7.69-0.791 11.54-2.166-2.118-1.13-6.255-2.5-11.579-2.779z" clip-rule="evenodd" fill="url(#j)" fill-rule="evenodd"/>
<circle transform="matrix(-1 0 0 1 384.62 180.53)" r="1.8414" fill="#2F235A"/>
<circle transform="matrix(-1 0 0 1 342.36 127.74)" r="1.8414" fill="#FE9076"/>
<circle transform="matrix(-1 0 0 1 434.98 173.22)" r="1.8414" fill="#FFA400"/>
<circle transform="matrix(-1 0 0 1 352.46 208.93)" r="1.8414" fill="#23BB86"/>
<path d="m346.88 120.05c4.163-5.718 15.89-17.931 29.494-21.04" stroke="#FE9076" stroke-linecap="round" stroke-width="1.6028"/>
<path d="m442.75 168.29c6.153-3.487 21.878-9.766 35.551-6.979" stroke="#FFA400" stroke-linecap="round" stroke-width="1.6028"/>
<path d="m358.78 214.28c3.153 2.782 10.739 10.684 15.858 20.031" stroke="#23BB86" stroke-linecap="round" stroke-width="1.6028"/>
<path d="m269.95 56.551c-2.088-3.2253-6.314-1.4683-6.314 2.0452 0 2.6384 5.794 6.7655 6.314 7.3021 0.524-0.5366 6.03-4.6637 6.03-7.3021 0-3.4868-3.938-5.2705-6.03-2.0452z" fill="#FFBCBC"/>
<circle cx="269.81" cy="60.376" r="13.8" stroke="#F7F7F7" stroke-width=".64968"/>
<path d="m220.43 37.317c-1.848-2.8546-5.588-1.2995-5.588 1.8101 0 2.3351 5.128 5.9878 5.588 6.4627 0.464-0.4749 5.337-4.1276 5.337-6.4627 0-3.086-3.485-4.6647-5.337-1.8101z" fill="#FFBCBC"/>
<circle cx="220.3" cy="40.703" r="12.214" stroke="#F7F7F7" stroke-width=".575"/>
<path d="m253.11 16.342c-1.264-1.9524-3.823-0.8888-3.823 1.2379 0 1.5971 3.508 4.0952 3.823 4.4201 0.317-0.3249 3.649-2.823 3.649-4.4201 0-2.1106-2.383-3.1903-3.649-1.2379z" fill="#FFBCBC"/>
<circle cx="253.02" cy="18.658" r="8.3532" stroke="#F7F7F7" stroke-width=".39326"/>
<path d="m195.38 5.4782c-1.034-1.5975-3.127-0.72723-3.127 1.013 0 1.3067 2.869 3.3508 3.127 3.6166 0.259-0.26574 2.986-2.3098 2.986-3.6166 0-1.727-1.95-2.6104-2.986-1.013z" fill="#FFBCBC"/>
<circle cx="195.31" cy="7.3727" r="6.8349" stroke="#F7F7F7" stroke-width=".32178"/>
<path d="m190.29 80.364c-2.258-3.4878-6.828-1.5878-6.828 2.2116 0 2.853 6.265 7.3159 6.828 7.8962 0.567-0.5803 6.521-5.0432 6.521-7.8962 0-3.7706-4.259-5.6994-6.521-2.2116z" fill="#FFBCBC"/>
<circle cx="190.14" cy="84.5" r="14.923" stroke="#F7F7F7" stroke-width=".70254"/>
<defs>
<filter id="w" x="154.73" y="78.062" width="173.66" height="125.96" color-interpolation-filters="sRGB" filterUnits="userSpaceOnUse">
<feFlood flood-opacity="0" result="BackgroundImageFix"/>
<feColorMatrix in="SourceAlpha" values="0 0 0 0 0 0 0 0 0 0 0 0 0 0 0 0 0 0 127 0"/>
<feOffset dy="4"/>
<feGaussianBlur stdDeviation="17"/>
<feColorMatrix values="0 0 0 0 0.0386285 0 0 0 0 0.0648437 0 0 0 0 0.104167 0 0 0 0.13 0"/>
<feBlend in2="BackgroundImageFix" result="effect1_dropShadow"/>
<feBlend in="SourceGraphic" in2="effect1_dropShadow" result="shape"/>
</filter>
<filter id="v" x="257.4" y="142.32" width="77.06" height="89.646" color-interpolation-filters="sRGB" filterUnits="userSpaceOnUse">
<feFlood flood-opacity="0" result="BackgroundImageFix"/>
<feColorMatrix in="SourceAlpha" values="0 0 0 0 0 0 0 0 0 0 0 0 0 0 0 0 0 0 127 0"/>
<feOffset dy="4"/>
<feGaussianBlur stdDeviation="17"/>
<feColorMatrix values="0 0 0 0 0.0386285 0 0 0 0 0.0648437 0 0 0 0 0.104167 0 0 0 0.13 0"/>
<feBlend in2="BackgroundImageFix" result="effect1_dropShadow"/>
<feBlend in="SourceGraphic" in2="effect1_dropShadow" result="shape"/>
</filter>
<filter id="u" x="241.66" y="128.69" width="92.25" height="114.05" color-interpolation-filters="sRGB" filterUnits="userSpaceOnUse">
<feFlood flood-opacity="0" result="BackgroundImageFix"/>
<feColorMatrix in="SourceAlpha" values="0 0 0 0 0 0 0 0 0 0 0 0 0 0 0 0 0 0 127 0"/>
<feOffset dy="4"/>
<feGaussianBlur stdDeviation="17"/>
<feColorMatrix values="0 0 0 0 0.0386285 0 0 0 0 0.0648437 0 0 0 0 0.104167 0 0 0 0.13 0"/>
<feBlend in2="BackgroundImageFix" result="effect1_dropShadow"/>
<feBlend in="SourceGraphic" in2="effect1_dropShadow" result="shape"/>
</filter>
<filter id="t" x="146.77" y="142.32" width="77.06" height="89.646" color-interpolation-filters="sRGB" filterUnits="userSpaceOnUse">
<feFlood flood-opacity="0" result="BackgroundImageFix"/>
<feColorMatrix in="SourceAlpha" values="0 0 0 0 0 0 0 0 0 0 0 0 0 0 0 0 0 0 127 0"/>
<feOffset dy="4"/>
<feGaussianBlur stdDeviation="17"/>
<feColorMatrix values="0 0 0 0 0.0386285 0 0 0 0 0.0648437 0 0 0 0 0.104167 0 0 0 0.13 0"/>
<feBlend in2="BackgroundImageFix" result="effect1_dropShadow"/>
<feBlend in="SourceGraphic" in2="effect1_dropShadow" result="shape"/>
</filter>
<filter id="s" x="147.16" y="128.69" width="92.25" height="114.05" color-interpolation-filters="sRGB" filterUnits="userSpaceOnUse">
<feFlood flood-opacity="0" result="BackgroundImageFix"/>
<feColorMatrix in="SourceAlpha" values="0 0 0 0 0 0 0 0 0 0 0 0 0 0 0 0 0 0 127 0"/>
<feOffset dy="4"/>
<feGaussianBlur stdDeviation="17"/>
<feColorMatrix values="0 0 0 0 0.0386285 0 0 0 0 0.0648437 0 0 0 0 0.104167 0 0 0 0.13 0"/>
<feBlend in2="BackgroundImageFix" result="effect1_dropShadow"/>
<feBlend in="SourceGraphic" in2="effect1_dropShadow" result="shape"/>
</filter>
<linearGradient id="o" x1="391.3" x2="393.95" y1="158.7" y2="334.57" gradientUnits="userSpaceOnUse">
<stop stop-color="#FFEFE0" offset="0"/>
<stop stop-color="#FFBE99" offset="1"/>
</linearGradient>
<linearGradient id="i" x1="242.8" x2="230.4" y1="200.58" y2="448.92" gradientUnits="userSpaceOnUse">
<stop stop-color="#FF9F81" offset="0"/>
<stop stop-color="#F53838" offset="1"/>
</linearGradient>
<linearGradient id="h" x1="227.73" x2="109.06" y1="287.86" y2="344.74" gradientUnits="userSpaceOnUse">
<stop stop-color="#FFEFE0" offset=".067797"/>
<stop stop-color="#FFBE99" offset="1"/>
</linearGradient>
<linearGradient id="g" x1="238.73" x2="240.81" y1="173.35" y2="239.74" gradientUnits="userSpaceOnUse">
<stop stop-color="#FFEFE0" offset="0"/>
<stop stop-color="#FFBE99" offset="1"/>
</linearGradient>
<linearGradient id="f" x1="238.73" x2="235.81" y1="173.35" y2="248.98" gradientUnits="userSpaceOnUse">
<stop stop-color="#FFEFE0" offset="0"/>
<stop stop-color="#FFBE99" offset="1"/>
</linearGradient>
<linearGradient id="e" x1="242.18" x2="242.18" y1="137.96" y2="217.68" gradientUnits="userSpaceOnUse">
<stop stop-color="#FFEFE0" offset="0"/>
<stop stop-color="#FFBE99" offset="1"/>
</linearGradient>
<linearGradient id="d" x1="275.35" x2="217.25" y1="226.61" y2="435.11" gradientUnits="userSpaceOnUse">
<stop stop-color="#fff" offset=".017178"/>
<stop stop-color="#D7D7D7" offset="1"/>
</linearGradient>
<linearGradient id="c" x1="132.89" x2="132.89" y1="164.43" y2="182.32" gradientUnits="userSpaceOnUse">
<stop stop-color="#FFE89E" offset="0"/>
<stop stop-color="#FFBF1A" offset="1"/>
</linearGradient>
<linearGradient id="b" x1="105.45" x2="105.45" y1="143.95" y2="155.86" gradientUnits="userSpaceOnUse">
<stop stop-color="#FFE89E" offset="0"/>
<stop stop-color="#FFBF1A" offset="1"/>
</linearGradient>
<linearGradient id="a" x1="62.683" x2="62.683" y1="126.03" y2="143.92" gradientUnits="userSpaceOnUse">
<stop stop-color="#FFE89E" offset="0"/>
<stop stop-color="#FFBF1A" offset="1"/>
</linearGradient>
<linearGradient id="n" x1="67.172" x2="67.172" y1="201.63" y2="227.95" gradientUnits="userSpaceOnUse">
<stop stop-color="#FFE89E" offset="0"/>
<stop stop-color="#FFBF1A" offset="1"/>
</linearGradient>
<linearGradient id="m" x1="346.93" x2="346.93" y1="164.43" y2="182.32" gradientUnits="userSpaceOnUse">
<stop stop-color="#FFE89E" offset="0"/>
<stop stop-color="#FFBF1A" offset="1"/>
</linearGradient>
<linearGradient id="l" x1="374.37" x2="374.37" y1="143.95" y2="155.86" gradientUnits="userSpaceOnUse">
<stop stop-color="#FFE89E" offset="0"/>
<stop stop-color="#FFBF1A" offset="1"/>
</linearGradient>
<linearGradient id="k" x1="417.14" x2="417.14" y1="126.03" y2="143.92" gradientUnits="userSpaceOnUse">
<stop stop-color="#FFE89E" offset="0"/>
<stop stop-color="#FFBF1A" offset="1"/>
</linearGradient>
<linearGradient id="j" x1="412.65" x2="412.65" y1="201.63" y2="227.95" gradientUnits="userSpaceOnUse">
<stop stop-color="#FFE89E" offset="0"/>
<stop stop-color="#FFBF1A" offset="1"/>
</linearGradient>
</defs>
</svg>
