<?xml version="1.0" encoding="UTF-8"?>
<svg fill="none" viewBox="0 0 16 17" xmlns="http://www.w3.org/2000/svg">
<path d="m14.189 6.418-3.9672-0.57656-1.7735-3.5953c-0.04844-0.09844-0.12813-0.17813-0.22657-0.22656-0.24687-0.12188-0.54687-0.02032-0.67031 0.22656l-1.7734 3.5953-3.9672 0.57656c-0.10938 0.01563-0.20938 0.06719-0.28594 0.14532-0.09256 0.09513-0.14357 0.22312-0.14181 0.35584s0.05614 0.25932 0.15118 0.35197l2.8703 2.7984-0.67813 3.9515c-0.0159 0.092-0.00573 0.1865 0.02936 0.2729 0.0351 0.0865 0.09371 0.1614 0.16919 0.2162s0.16481 0.0874 0.25786 0.094 0.1861-0.0129 0.26859-0.0565l3.5484-1.8656 3.5484 1.8656c0.0969 0.0516 0.2094 0.0688 0.3172 0.05 0.2719-0.0469 0.4547-0.3047 0.4078-0.5766l-0.6781-3.9515 2.8703-2.7984c0.0781-0.07656 0.1297-0.17656 0.1453-0.28594 0.0422-0.27344-0.1484-0.52656-0.4218-0.56719z" fill="#FEA250"/>
</svg>
