<?xml version="1.0" encoding="UTF-8"?>
<svg fill="none" viewBox="0 0 35 35" xmlns="http://www.w3.org/2000/svg">
<path d="m17.4 0.58057c-9.2785 0-16.8 7.5215-16.8 16.8 0 9.2785 7.5215 16.8 16.8 16.8 9.2785 0 16.8-7.5215 16.8-16.8 0-9.2785-7.5215-16.8-16.8-16.8zm6.8337 13.762c7e-3 0.1435 0.0088 0.287 0.0088 0.427 0 4.375-3.3268 9.4167-9.4133 9.4167-1.7985 3e-3 -3.5595-0.5135-5.0715-1.4875 0.25727 0.0315 0.52147 0.0438 0.78927 0.0438 1.5505 0 2.9767-0.5268 4.109-1.4158-0.69-0.0135-1.3586-0.242-1.9126-0.6536-0.554-0.4115-0.9657-0.9857-1.1779-1.6424 0.4955 0.0942 1.006 0.0745 1.4927-0.0577-0.7489-0.1515-1.4224-0.5573-1.9062-1.1486-0.4839-0.5914-0.7483-1.3319-0.7485-2.0959v-0.0403c0.4462 0.2468 0.9572 0.3973 1.4997 0.4148-0.7021-0.4674-1.1991-1.1854-1.3894-2.007-0.1903-0.8217-0.0595-1.6851 0.3657-2.4135 0.8311 1.022 1.8677 1.858 3.0425 2.454s2.4616 0.9386 3.7772 1.0057c-0.1672-0.7099-0.0952-1.4553 0.2048-2.1201s0.8113-1.2119 1.4544-1.5562c0.643-0.3442 1.3818-0.4664 2.1014-0.3475s1.3798 0.4722 1.8779 1.0051c0.7406-0.1465 1.4507-0.4182 2.1-0.8033-0.2468 0.7668-0.7635 1.4178-1.4542 1.8323 0.656-0.079 1.2965-0.2554 1.9005-0.5233-0.4437 0.6648-1.0025 1.245-1.6503 1.7133z" fill="#fff"/>
</svg>
