<?xml version="1.0" encoding="UTF-8"?>
<svg fill="none" viewBox="0 0 34 35" xmlns="http://www.w3.org/2000/svg">
<path d="m22.25 17.381c0 1.3924-0.5532 2.7277-1.5377 3.7123-0.9846 0.9845-2.32 1.5377-3.7123 1.5377-1.3924 0-2.7278-0.5532-3.7124-1.5377-0.9845-0.9846-1.5376-2.3199-1.5376-3.7123 0-0.2993 0.0315-0.5915 0.0857-0.875h-1.8358v6.9947c0 0.4865 0.39375 0.8803 0.88025 0.8803h12.241c0.2331-5e-4 0.4566-0.0934 0.6213-0.2585 0.1647-0.165 0.2572-0.3886 0.2572-0.6218v-6.9947h-1.8358c0.0543 0.2835 0.0858 0.5757 0.0858 0.875zm-5.25 3.5c0.4597-1e-4 0.9149-0.0908 1.3396-0.2669 0.4247-0.176 0.8106-0.434 1.1356-0.7591 0.325-0.3252 0.5828-0.7112 0.7586-1.136s0.2663-0.88 0.2662-1.3398c-2e-4 -0.4597-0.0908-0.9149-0.2669-1.3396-0.176-0.4247-0.434-0.8106-0.7591-1.1356-0.3252-0.325-0.7112-0.5828-1.136-0.7586-0.4248-0.1759-0.8801-0.2663-1.3398-0.2662-0.9285 3e-4 -1.8189 0.3693-2.4752 1.026-0.6564 0.6567-1.025 1.5473-1.0248 2.4758s0.3693 1.8188 1.026 2.4752 1.5473 1.025 2.4758 1.0248zm4.2-7.175h2.0982c0.1394 0 0.2731-0.0553 0.3719-0.1537 0.0987-0.0984 0.1544-0.2319 0.1549-0.3713v-2.0983c0-0.1397-0.0555-0.2737-0.1543-0.3725-0.0988-0.0987-0.2328-0.1542-0.3725-0.1542h-2.0982c-0.1397 0-0.2737 0.0555-0.3725 0.1542-0.0988 0.0988-0.1543 0.2328-0.1543 0.3725v2.0983c0.0018 0.2887 0.238 0.525 0.5268 0.525zm-4.2-13.125c-4.4557 0-8.7288 1.77-11.879 4.9206s-4.9206 7.4237-4.9206 11.879c0 4.4556 1.77 8.7288 4.9206 11.879s7.4237 4.9206 11.879 4.9206c2.2062 0 4.3908-0.4346 6.429-1.2789 2.0383-0.8442 3.8903-2.0817 5.4504-3.6417 1.56-1.5601 2.7975-3.4121 3.6417-5.4503 0.8443-2.0383 1.2789-4.2229 1.2789-6.4291s-0.4346-4.3908-1.2789-6.4291c-0.8442-2.0383-2.0817-3.8903-3.6417-5.4503-1.5601-1.56-3.4121-2.7975-5.4504-3.6418-2.0382-0.84428-4.2228-1.2788-6.429-1.2788zm8.75 23.606c0 1.0693-0.875 1.9443-1.9443 1.9443h-13.612c-1.0692 0-1.9442-0.875-1.9442-1.9443v-13.612c0-1.0692 0.875-1.9442 1.9442-1.9442h13.612c1.0693 0 1.9443 0.875 1.9443 1.9442v13.612z" fill="#fff"/>
</svg>
